<?xml version="1.0" encoding="utf-8"?>
<!-- Generator: Adobe Illustrator 16.0.0, SVG Export Plug-In . SVG Version: 6.00 Build 0)  -->
<!DOCTYPE svg PUBLIC "-//W3C//DTD SVG 1.1//EN" "http://www.w3.org/Graphics/SVG/1.1/DTD/svg11.dtd">
<!--suppress XmlHighlighting -->
<svg version="1.1" id="Layer_1" xmlns="http://www.w3.org/2000/svg" xmlns:xlink="http://www.w3.org/1999/xlink" x="0px" y="0px"
	 width="1000px" height="1000px" viewBox="0 0 1000 1000" enable-background="new 0 0 1000 1000" xml:space="preserve">
<polygon fill="#834FDD" points="721.145,623.131 850.849,563.312 840.525,688.93 964.259,410.929 "/>
<g>
	<path fill="#834FDD" d="M608.9,214.693c-53.805,15.373,13.029,62.608,51.463,39.548c26.904-19.219,30.744-76.865,26.904-107.611
		c-7.688-88.395-91.814-97.261-161.418-65.337c-172.614,79.165-280.441,221.18-364.993,367.225
		C95.521,567.658-4.225,761.617,52.591,896.445c62.365,147.995,273.741-28.833,381.02-192.544
		c28.652-43.723,53.805-92.238,84.549-134.518c-19.943,103.91-60.159,215.415,0,276.717c93.293,95.06,188.32-53.805,245.969-115.296
		c19.822-59.197,13.602-93.785-15.371-53.807c-73.518,66.482-161.084,159.87-188.32,149.888
		c-46.117-157.573,82.271-337.047,130.67-499.626c-7.354-28.445-38.1-47.664-73.021-15.37
		C491.593,490.974,433.611,611.663,329.843,742.332c-39.201,49.364-126.595,171.813-199.848,145.544
		c-45.787-16.42-7.687-148.272,11.53-198.234c26.902-73.022,56.2-129.43,96.696-199.349
		c60.762-104.911,80.911-135.75,137.742-205.306c48.146-58.925,119.139-125.398,195.504-152.616
		c72.84-25.959,115.801-2.611,50.463,66.566L608.9,214.693z"/>
</g>
</svg>
