<?xml version="1.0" encoding="utf-8"?>
<!-- Generator: Adobe Illustrator 16.0.0, SVG Export Plug-In . SVG Version: 6.00 Build 0)  -->
<!DOCTYPE svg PUBLIC "-//W3C//DTD SVG 1.1//EN" "http://www.w3.org/Graphics/SVG/1.1/DTD/svg11.dtd">
<svg version="1.1" id="Layer_1" xmlns="http://www.w3.org/2000/svg" xmlns:xlink="http://www.w3.org/1999/xlink" x="0px" y="0px"
	 width="1000px" height="1000px" viewBox="0 0 1000 1000" enable-background="new 0 0 1000 1000" xml:space="preserve">
<polygon fill="#834FDD" points="645.219,625.015 777.038,564.22 766.546,691.887 892.298,409.353 "/>
<g>
	<path fill="#834FDD" d="M624.863,759.998c8.043,7.132,20.965,4.208,30.75,2.201c3.081-0.632,25.834-19.801,33.29-27.754
		c44.873-56.372,13.824-95.315-15.621-54.685c-15.935,14.409-32.518,30.063-49.018,45.675
		C618.445,735.926,614.597,750.896,624.863,759.998z"/>
</g>
<g>
	<path fill="#834FDD" d="M374.954,116.046c0.136-1.884-1.651-3.374-2.976-4.525c-0.417-0.362-5.521-1.49-7.428-1.681
		c-12.657-0.241-14.774,8.25-5.961,8.019c3.712,0.685,7.667,1.327,11.606,1.962C372.281,119.512,374.78,118.45,374.954,116.046z"/>
</g>
<g>
	<path fill="#834FDD" d="M512.536,392.357c3.798,3.367,9.897,1.987,14.518,1.04c1.454-0.298,12.195-9.348,15.715-13.102
		c21.184-26.612,6.525-44.997-7.374-25.816c-7.523,6.803-15.351,14.192-23.141,21.563
		C509.506,380.994,507.689,388.06,512.536,392.357z"/>
</g>
<g>
	<path fill="#834FDD" d="M437.09,840.166c-19.301-8.654-10.65-3.685-27.079-16.686c-20.051-15.638-39.031-8.09-47.136,0.726
		c-10.049,10.93-6.708,22.662-3.834,36.929c14.299,19.873,43.831,30.845,73.302,28.784c0.95-0.066,16.533-6.236,17.465-6.318
		c7.83-9.36,11.568-13.8,7.506-25.411C451.603,841.859,437.219,840.093,437.09,840.166z"/>
</g>
<g>
	<path fill="#834FDD" d="M554.247,247.417c1.371,7.839,1.453,10.667,0.865,18.528c1.95,3.489,5.027,6.151,9.484,6.818
		c5.523,0.828,8.797-1.541,12.637-5.444c3.18-8.646,0.373-20.161-6.481-28.911c-0.222-0.282-5.429-3.838-5.65-4.111
		c-4.568-0.467-6.74-0.696-9.502,3.017C551.714,242.538,554.197,247.393,554.247,247.417z"/>
</g>
<g>
	<path fill="#834FDD" d="M381.556,542.862c-5.897-16.428-29.881-13.63-42.162-7.632c-15.506,7.572-27.039,21.394-31.468,38.112
		c-3.536,13.352-3.267,30.133,5.546,41.572c6.417,8.329,15.131,11.932,24.502,12.465c0.252-0.466,0.438-1.229,1.048-1.346
		c22.355-4.259,30.027-26.133,38.446-41.146C383.927,573.373,386.469,556.547,381.556,542.862z"/>
</g>
<g>
	<path fill="#834FDD" d="M328.264,676.178c-14.018,2.111-29.788,20.462-29.769,37.586c0.775,5.826,0.75,50.129,3.258,69.492
		c1.913,6.534,5.56,13.06,12.598,14.848c7.157,1.818,14.855,0.137,21.235-3.448c17.552-9.858,24.375-27.996,26.926-47.15
		c0.229-1.72-0.212-29.363-0.225-41.461C358.924,687.9,349.725,672.944,328.264,676.178z"/>
</g>
<g>
	<path fill="#834FDD" d="M482.248,146.637c-1.295,4.22,1.735,11.119,6.547,13.42c1.74,0.567,14.178,6.539,19.954,8.441
		c2.091,0.344,4.415,0.198,5.865-1.538c1.475-1.765,2.039-4.154,1.891-6.428c-0.404-6.257-4.58-10.616-9.614-13.912
		c-0.453-0.295-8.276-3.894-11.675-5.519C489.667,139.605,484.229,140.174,482.248,146.637z"/>
</g>
<g>
	<path fill="#834FDD" d="M601.433,788.027c-13.627-7.588-29.067-3.385-43.33,3.346c-0.315,1.033-0.988,1.999-2.121,2.739
		c-7.176,4.688-13.863,9.1-20.37,14.685c-6.309,5.415-12.504,11.009-18.17,17.103c-8.359,8.99-23.337,25.833-16.75,39.439
		c10.481,21.651,37.758,11.215,52.811,1.334c15.33-10.063,28.013-24.176,39.271-38.547
		C599.647,819.351,617.109,796.758,601.433,788.027z"/>
</g>
<g>
	<path fill="#834FDD" d="M205.669,190.956c-2.06-1.147-4.394-0.512-6.549,0.505c-0.047,0.156-0.149,0.302-0.32,0.414
		c-1.084,0.708-2.095,1.375-3.079,2.219c-0.954,0.819-1.89,1.664-2.747,2.585c-1.263,1.359-3.527,3.904-2.531,5.961
		c1.584,3.272,5.707,1.695,7.981,0.201c2.317-1.521,4.234-3.654,5.936-5.825C205.399,195.689,208.038,192.275,205.669,190.956z"/>
</g>
<g>
	<path fill="#834FDD" d="M455.789,436.912c-7.407-4.125-15.8-1.84-23.554,1.819c-0.172,0.562-0.537,1.087-1.153,1.489
		c-3.9,2.549-7.536,4.946-11.072,7.982c-3.43,2.943-6.797,5.984-9.878,9.296c-4.544,4.888-12.685,14.043-9.105,21.44
		c5.698,11.769,20.526,6.096,28.709,0.725c8.333-5.47,15.227-13.142,21.346-20.954C454.818,453.939,464.311,441.657,455.789,436.912
		z"/>
</g>
</svg>
